<svg xmlns="http://www.w3.org/2000/svg" width="400" height="148.023" viewBox="0 0 0 0 400 148.023"><g fill-rule="evenodd"><path d="M58.5 27.5V55h55.333V0H58.5v27.5m63.833 36.583c0 .852.054 1.084.25 1.084.175 0 .25.176.25.583 0 .472.064.583.334.583.289 0 .333.111.333.834 0 .629.061.833.25.833.185 0 .25.193.25.738 0 .442.103.841.257.995.141.141.278.532.304.868.027.336.174.703.327.815.208.152.279.464.279 1.227 0 .799.055 1.024.25 1.024.174 0 .25.176.25.583 0 .472.063.583.333.583.289 0 .333.111.333.834 0 .629.061.833.25.833.195 0 .25.225.25 1.023 0 .753.072 1.076.271 1.222.149.109.271.408.271.664 0 .316.101.493.313.548.261.068.312.244.312 1.068 0 .722.067 1.011.25 1.081.154.06.25.313.25.662 0 .454.065.565.333.565.299 0 .334.111.334 1.084 0 .852.053 1.083.25 1.083.174 0 .25.176.25.583 0 .408.075.584.25.584.197 0 .25.233.25 1.099 0 .958.042 1.11.333 1.186.236.061.333.227.333.567 0 .316.086.481.25.481.192 0 .25.211.25.903 0 1.056.114 1.43.435 1.43.154 0 .232.196.232.584 0 .407.075.583.25.583.197 0 .25.231.25 1.083s.053 1.084.25 1.084c.175 0 .25.176.25.583 0 .472.063.583.333.583.289 0 .334.111.334.834 0 .629.061.833.25.833.216 0 .391 1.436.269 2.208-.01.069.093.125.231.125.161 0 .25.163.252.459.003.713.181 1.208.434 1.208.152 0 .23.198.23.583 0 .408.076.584.25.584.195 0 .25.224.25 1.015 0 .876.046 1.028.334 1.103.276.072.333.227.333.906 0 .575.075.848.25.915.186.072.25.368.25 1.162v1.065h11.333v-1.065c0-.794.064-1.09.25-1.162.143-.055.25-.303.25-.581 0-.328.098-.512.3-.564.221-.058.31-.269.342-.81.025-.426.144-.787.284-.866.153-.085.241-.401.241-.859 0-.489.081-.755.25-.82.176-.067.25-.342.25-.934 0-.728.044-.839.333-.839.299 0 .334-.111.334-1.083 0-.852.053-1.083.25-1.083.173 0 .25-.174.25-.564 0-.424.083-.586.333-.651.271-.071.333-.228.333-.835 0-.498.081-.779.241-.84.152-.059.259-.387.292-.893.033-.531.121-.787.259-.759.151.03.208-.281.208-1.125 0-1.056.032-1.167.334-1.167.289 0 .333-.111.333-.833 0-.63.061-.833.25-.833.188 0 .25-.202.25-.814 0-.674.057-.829.333-.901.24-.063.334-.228.334-.585 0-.28.105-.538.24-.59.152-.059.259-.387.292-.893.034-.531.121-.787.259-.759.145.029.209-.213.209-.786 0-.657.068-.864.333-1.006.257-.137.333-.349.333-.922 0-.507.067-.731.209-.703.124.025.229-.175.26-.5.032-.325.145-.541.283-.541.159 0 .247-.26.281-.836.028-.459.117-.828.199-.819.262.029.43-.411.432-1.137.003-.754.384-1.013.551-.375.048.183.207.333.353.333.221 0 .266.225.266 1.339 0 1.036.056 1.36.25 1.434.137.053.25.201.25.328 0 .128.112.233.25.233.22 0 .37.789.265 1.389-.014.077.127.179.313.228.282.073.338.225.338.902 0 .612.062.814.25.814.19 0 .25.205.25.849 0 .709.055.863.334.936.276.072.333.227.333.901 0 .612.062.814.25.814.185 0 .25.195.25.755 0 .518.079.786.25.851.187.072.25.37.25 1.177 0 .941.043 1.093.333 1.169.276.072.334.227.334.901 0 .612.062.814.25.814.166 0 .25.166.25.5 0 .389.074.5.333.5.289 0 .333.111.333.838 0 .592.074.867.25.935.17.065.25.331.25.833s.08.768.25.833c.189.073.25.376.25 1.232 0 1.282.1 1.662.435 1.662.128 0 .232.112.232.25s.112.25.25.25c.201 0 .25.26.25 1.339 0 1.025.057 1.36.245 1.432.135.052.294.35.352.662.061.322.207.567.338.567.174 0 .232.27.232 1.083 0 .831.056 1.084.239 1.084.148 0 .259.206.292.541l.052.542h10.667l.05-.792c.036-.555.123-.791.292-.791.164 0 .241-.186.241-.584 0-.407.075-.583.25-.583.188 0 .25-.202.25-.814 0-.674.057-.829.333-.901.271-.071.334-.227.334-.835 0-.511.079-.778.25-.844.187-.071.25-.37.25-1.184 0-.867.052-1.089.255-1.089a.41.41 0 0 0 .351-.25c.053-.137.2-.25.328-.25.177 0 .232-.28.232-1.166 0-.926.052-1.167.25-1.167.189 0 .25-.204.25-.833 0-.723.045-.834.334-.834.298 0 .333-.111.333-1.065 0-.794.064-1.09.25-1.162.143-.055.25-.303.25-.581 0-.328.098-.512.299-.564.222-.058.311-.269.343-.81.025-.426.143-.787.284-.866.171-.096.241-.446.241-1.21 0-.844.053-1.075.25-1.075.174 0 .25-.176.25-.583 0-.473.063-.584.333-.584.299 0 .333-.111.333-1.065 0-.775.066-1.091.241-1.158.152-.058.259-.386.292-.893.028-.44.117-.775.199-.744.206.077.429-.317.432-.765.002-.221.106-.375.253-.375.198 0 .25-.24.25-1.166 0-.926.052-1.167.25-1.167.162 0 .25-.162.25-.46 0-.279.131-.542.333-.668.273-.171.334-.389.334-1.207 0-.776.055-.998.25-.998.174 0 .25-.176.25-.584 0-.407.075-.583.25-.583.196 0 .25-.231.25-1.083 0-.815.057-1.084.232-1.084.255 0 .434-.35.434-.847 0-.175.113-.319.25-.319.198 0 .25-.239.25-1.148 0-1.007.041-1.157.334-1.234.242-.063.333-.227.333-.603 0-.323.078-.5.208-.474.147.03.223-.292.258-1.083.037-.851.108-1.125.292-1.125.179 0 .242-.213.242-.814 0-.674.057-.829.333-.901.299-.078.334-.227.334-1.436V63h-9v.564c0 .424-.083.585-.334.651-.226.059-.333.227-.333.525 0 .24-.113.48-.25.533-.185.071-.25.366-.25 1.142 0 .906-.045 1.058-.333 1.133-.24.063-.334.228-.334.585 0 .289-.105.538-.25.594-.184.071-.25.361-.25 1.101 0 .783-.055 1.005-.25 1.005-.174 0-.25.176-.25.584 0 .53-.124.669-.541.603-.069-.011-.125.355-.125.813 0 .63-.061.834-.25.834s-.25.203-.25.827c0 .634-.072.866-.308.992-.237.127-.314.383-.339 1.127-.021.647-.111 1.008-.275 1.1-.135.075-.245.358-.245.629 0 .326-.084.491-.25.491-.189 0-.25.204-.25.834 0 .722-.044.833-.333.833-.302 0-.334.111-.334 1.167 0 .926-.051 1.166-.25 1.166-.189 0-.25.204-.25.834 0 .629-.061.833-.25.833-.168 0-.25.168-.25.516 0 .375-.09.539-.333.602-.276.073-.333.228-.333.901 0 .613-.062.814-.25.814-.197 0-.25.232-.25 1.084 0 .815-.058 1.083-.233 1.083-.291 0-.434.363-.434 1.102 0 .357-.095.611-.25.671-.175.067-.25.34-.25.911 0 .614-.062.816-.25.816-.164 0-.25.165-.25.481 0 .34-.097.506-.333.567-.279.073-.334.228-.334.936 0 .644-.06.849-.25.849-.174 0-.25-.176-.25-.583 0-.472-.063-.583-.333-.583-.299 0-.333-.111-.333-1.089 0-.814-.063-1.113-.25-1.184-.138-.053-.25-.232-.25-.398 0-.456-.183-.839-.351-.735-.082.051-.149-.407-.149-1.017 0-.968-.042-1.12-.334-1.196-.276-.072-.333-.227-.333-.901 0-.612-.062-.814-.25-.814-.216 0-.352-.523-.27-1.041.011-.069-.13-.125-.313-.125-.289 0-.334-.111-.334-.834 0-.629-.061-.833-.25-.833s-.25-.204-.25-.833c0-.63-.061-.834-.25-.834-.197 0-.25-.233-.25-1.099 0-.958-.042-1.11-.333-1.186-.25-.065-.333-.227-.333-.651 0-.362-.075-.549-.209-.522-.14.028-.224-.242-.258-.833-.043-.739-.101-.875-.375-.875-.289 0-.325-.121-.325-1.084 0-.852-.053-1.083-.25-1.083-.192 0-.25-.213-.25-.917 0-.644-.062-.904-.208-.875-.139.028-.226-.229-.26-.768-.041-.636-.121-.828-.375-.894-.24-.063-.324-.231-.324-.649 0-.39-.077-.564-.25-.564-.196 0-.25-.231-.25-1.083s-.053-1.083-.25-1.083c-.192 0-.25-.213-.25-.919 0-.712-.075-.982-.333-1.203-.185-.159-.333-.492-.333-.749 0-.3-.088-.463-.25-.463-.175 0-.25-.176-.25-.583 0-.466-.065-.583-.323-.583-.242 0-.336-.135-.375-.542l-.052-.542-4.459-.044c-3.892-.039-4.458-.012-4.458.208a.253.253 0 0 1-.25.253c-.188 0-.25.202-.25.822 0 .676-.059.841-.333.928-.274.087-.334.252-.334.928 0 .62-.061.822-.25.822s-.25.204-.25.833c0 .63-.061.834-.25.834-.174 0-.25.176-.25.583 0 .472-.063.583-.333.583-.299 0-.333.111-.333 1.066 0 .793-.064 1.09-.25 1.161-.143.055-.25.304-.25.582 0 .346-.097.511-.334.573-.29.076-.333.227-.333 1.186 0 .866-.053 1.099-.25 1.099-.165 0-.25.165-.25.482 0 .275-.107.524-.25.578-.17.065-.25.332-.25.832 0 .596-.063.752-.333.823-.29.076-.334.227-.334 1.168 0 .807-.063 1.106-.25 1.177-.171.066-.25.334-.25.851 0 .545-.066.756-.238.756-.132 0-.287.15-.345.333-.058.183-.213.333-.345.333-.188 0-.238.298-.238 1.417 0 1.148-.048 1.417-.25 1.417-.165 0-.25.164-.25.48 0 .341-.098.506-.334.568-.29.076-.333.227-.333 1.186 0 .866-.053 1.099-.25 1.099-.175 0-.25.176-.25.583 0 .383-.078.584-.229.584-.148 0-.267.292-.339.833-.075.571-.187.833-.354.833-.182 0-.245.213-.245.834 0 .629-.061.833-.25.833-.174 0-.25.176-.25.583 0 .473-.063.584-.333.584-.22 0-.333.111-.333.328 0 .223-.08.297-.25.232-.175-.067-.25-.34-.25-.911 0-.614-.062-.816-.25-.816-.186 0-.25-.196-.25-.766 0-.625-.061-.781-.334-.852-.292-.077-.333-.228-.333-1.235 0-.908-.052-1.147-.25-1.147-.155 0-.25-.157-.25-.415a.796.796 0 0 0-.333-.624c-.25-.155-.334-.388-.334-.923 0-.482-.081-.746-.25-.811-.186-.071-.25-.368-.25-1.161 0-.836-.054-1.066-.25-1.066-.173 0-.25-.174-.25-.57 0-.734-.143-1.097-.434-1.097-.167 0-.232-.231-.232-.825 0-.544-.082-.87-.24-.959-.162-.09-.252-.474-.277-1.175-.032-.885-.084-1.041-.344-1.041-.168 0-.306-.115-.306-.255a.412.412 0 0 0-.25-.351c-.193-.074-.25-.396-.25-1.411 0-1.059-.049-1.316-.25-1.316-.175 0-.25-.176-.25-.583 0-.473-.063-.584-.333-.584-.302 0-.334-.111-.334-1.166 0-.926-.051-1.167-.25-1.167-.168 0-.25-.168-.25-.516 0-.375-.09-.539-.333-.602-.27-.071-.333-.228-.333-.823 0-.501-.08-.767-.25-.832-.175-.067-.25-.34-.25-.911 0-.614-.062-.816-.25-.816-.218 0-.373-.889-.27-1.542.011-.068-.13-.125-.314-.125-.289 0-.333-.111-.333-.833 0-.63-.061-.833-.25-.833-.175 0-.25-.176-.25-.584V63h-10.167v1.083M206 86.416v23.417h35.506l-.045-4.208c-.034-3.218-.093-4.213-.253-4.229-.114-.012-5.946-.03-12.958-.042l-12.75-.021V90.169l10.958-.043 10.959-.043V82.25l-10.959-.043-10.958-.043V70.833h24.839l-.044-3.875-.045-3.875-17.125-.042L206 62.998v23.418m49.167.001v23.416H269.5c12.63 0 14.333-.029 14.333-.25 0-.203.277-.25 1.487-.25 1.627 0 2.013-.083 2.013-.434 0-.148.185-.232.506-.232.295 0 .545-.104.601-.25.065-.17.331-.25.833-.25s.768-.08.833-.25c.055-.143.304-.25.578-.25.372 0 .483-.077.483-.334 0-.27.111-.333.583-.333.386 0 .583-.078.583-.231 0-.126.158-.271.35-.322.207-.054.303-.169.234-.28-.069-.112.026-.227.233-.281.192-.05.35-.195.35-.322s.112-.231.25-.231a.25.25 0 0 0 .25-.25c0-.137.107-.25.239-.25.131 0 .286-.15.344-.333.059-.183.214-.333.345-.333.149 0 .239-.172.239-.46 0-.28.13-.542.333-.668a.797.797 0 0 0 .333-.606c0-.218.113-.441.25-.493.146-.056.25-.306.25-.601 0-.338.083-.506.25-.506.369 0 .374-5.414.006-5.62-.187-.104-.255-.574-.292-2.009-.026-1.051-.116-1.866-.205-1.859-.088.007-.216-.143-.287-.333-.07-.19-.243-.345-.383-.345-.181 0-.255-.171-.255-.584 0-.407-.076-.583-.25-.583-.156 0-.25-.157-.25-.415a.794.794 0 0 0-.334-.624c-.183-.114-.333-.302-.333-.418 0-.115-.113-.21-.25-.21a.25.25 0 0 1-.25-.25c0-.137-.12-.25-.266-.25-.146 0-.303-.145-.35-.324-.057-.218-.256-.34-.609-.375-.312-.03-.508-.135-.483-.259.027-.135-.164-.208-.542-.208-.407 0-.583-.076-.583-.25s-.191-.257-.625-.273c-.387-.014-.482-.05-.25-.095.206-.04.375-.179.375-.311 0-.131.112-.238.25-.238.137 0 .25-.113.25-.25a.25.25 0 0 1 .25-.25c.139 0 .25-.148.25-.333 0-.216.111-.334.314-.334.178 0 .353-.15.405-.35.05-.193.171-.3.269-.24.098.061.178.011.178-.11s.15-.313.334-.428A.795.795 0 0 0 293 82.1c0-.219.112-.441.25-.494.146-.056.25-.305.25-.601 0-.338.083-.505.25-.505.208 0 .25-.333.25-2 0-1.889.019-2 .333-2 .319 0 .334-.111.334-2.5s-.015-2.5-.334-2.5c-.27 0-.333-.111-.333-.583 0-.408-.075-.584-.25-.584s-.25-.176-.25-.583c0-.387-.078-.583-.232-.583-.128 0-.276-.113-.328-.25a.41.41 0 0 0-.351-.25.256.256 0 0 1-.256-.256.41.41 0 0 0-.25-.351c-.142-.054-.25-.303-.25-.578 0-.361-.078-.482-.314-.482-.173 0-.352-.149-.401-.333-.057-.221-.227-.334-.501-.334-.228 0-.458-.112-.511-.25a.41.41 0 0 0-.351-.25c-.14 0-.255-.106-.255-.236 0-.131-.219-.285-.486-.344s-.528-.215-.578-.347c-.052-.135-.312-.239-.597-.239-.338 0-.506-.083-.506-.25 0-.19-.205-.25-.849-.25-.708 0-.863-.055-.936-.334-.077-.297-.227-.333-1.383-.333-.998 0-1.318-.057-1.392-.25-.084-.219-1.778-.25-13.851-.25h-13.755v23.417M280 71.167c0 .183.104.333.232.333s.276.112.328.25c.066.171.333.25.84.25.598 0 .765.066.85.333.058.184.213.334.345.334.131 0 .238.112.238.25 0 .137.113.25.25.25a.25.25 0 0 1 .25.25c0 .137.104.25.231.25s.27.15.318.333c.048.183.206.333.352.333.184 0 .266.154.266.5 0 .334.083.5.25.5.192 0 .25.213.25.917 0 .704-.058.917-.25.917-.164 0-.25.164-.25.48 0 .343-.097.506-.338.569-.186.049-.327.151-.314.228.081.459-.047.889-.265.889-.139 0-.25.148-.25.334 0 .185-.111.333-.25.333a.25.25 0 0 0-.25.25c0 .167-.167.25-.505.25-.295 0-.545.104-.601.25-.053.137-.195.25-.317.25-.121 0-.268.15-.327.333-.097.308-.252.334-2.011.334-1.583 0-1.905.042-1.905.25 0 .217-.806.25-6.25.25h-6.25V70.833h7.666c7.556 0 7.667.005 7.667.334m1.667 19.25c0 .174.176.25.583.25s.583.075.583.25c0 .189.204.25.834.25.722 0 .833.044.833.333 0 .183.104.333.232.333s.276.113.328.25a.41.41 0 0 0 .351.25c.141 0 .256.115.256.256 0 .14.112.298.25.351.137.052.25.2.25.328s.112.232.25.232c.211 0 .25.387.25 2.482 0 2.053-.044 2.499-.25 2.578a.41.41 0 0 0-.25.351.254.254 0 0 1-.25.256.25.25 0 0 0-.25.25c0 .139-.148.25-.334.25-.222 0-.333.111-.333.333 0 .185-.111.333-.25.333a.25.25 0 0 0-.25.25c0 .189-.204.25-.833.25-.63 0-.834.061-.834.25 0 .175-.176.25-.583.25-.472 0-.583.064-.583.334 0 .329-.111.333-8.5.333h-8.5V90.167h8.5c7.444 0 8.5.031 8.5.25m53.042 47.666c.002.367.036.497.076.29a1.835 1.835 0 0 0-.004-.667c-.042-.159-.074.011-.072.377m-31.292 1.084l-.834.114.782.026c.43.015.828-.049.885-.14.057-.092.08-.155.052-.141-.029.015-.427.078-.885.141m-213.704.122c.439.035 1.114.034 1.5-.001.387-.034.029-.063-.796-.062-.825 0-1.142.029-.704.063m89.998-.003c.253.039.628.038.833-.002.205-.04-.002-.071-.461-.07-.458.002-.626.034-.372.072m37.831-.004c.16.041.423.041.583 0 .16-.042.029-.077-.292-.077s-.452.035-.291.077m56.838.007c.438.035 1.113.034 1.5-.001.387-.034.028-.063-.797-.062-.825 0-1.141.029-.703.063m58.495-.003c.252.038.665.038.917 0s.045-.069-.459-.069-.71.031-.458.069m26.258.005c.761.031 1.961.031 2.667-.001.706-.031.083-.056-1.383-.056-1.467 0-2.045.026-1.284.057" fill="#05a3e3"/><path d="M15 119.742c0 .133-.131.315-.292.405-.475.266-.415 2.219.084 2.683.206.192.375.405.375.473 0 .103 2.257.146 2.958.057.452-.058.27-2.95-.216-3.436-.51-.51-2.909-.66-2.909-.182m39.958.296c-.615.717-.64 2.795-.033 2.795.121 0 .265.145.321.321.173.544 2.89.447 3.102-.11.304-.798.19-2.732-.166-2.825a.622.622 0 0 1-.401-.401c-.16-.614-2.247-.451-2.823.22m107.048-.216c-.104.194-.173 1.758-.173 3.917 0 3.117-.034 3.594-.255 3.594a.41.41 0 0 1-.351-.25c-.053-.137-.2-.25-.328-.25s-.232-.112-.232-.25c0-.186-.197-.25-.774-.25-.544 0-.836-.086-.986-.291-.381-.523-5.632-.516-5.53.007.022.11-.171.225-.429.255-.257.029-.509.16-.559.291-.05.131-.31.238-.579.238-.279 0-.528.107-.583.25-.053.138-.3.25-.551.25-.327 0-.511.121-.65.426-.107.235-.269.38-.36.324-.098-.061-.166.139-.166.49 0 .396-.077.594-.232.594-.128 0-.276.112-.328.25a.412.412 0 0 1-.351.25c-.181 0-.256.17-.256.583 0 .396-.077.583-.239.583-.558 0-.607 5.711-.052 6.021.175.097.291.359.291.654 0 .326.085.492.25.492.138 0 .25.144.25.32 0 .496.18.847.435.847.128 0 .232.065.232.146 0 .208 1.261 1.52 1.461 1.52.092 0 .206.15.254.334.063.242.227.333.603.333.347 0 .515.082.515.25 0 .162.163.25.46.25.28 0 .542.131.668.333.193.309.389.334 2.624.334 2.193 0 2.446-.031 2.748-.334.235-.234.556-.333 1.084-.333.412 0 .75-.072.75-.159 0-.196.796-1.008.988-1.008.077 0 .181-.157.231-.35.05-.192.165-.304.255-.249.09.056.202.007.248-.108.047-.115.091.364.098 1.065.01.999.07 1.295.277 1.375.404.155 1.664.12 2.135-.059l.421-.16.003-11.203c.002-7.901-.051-11.268-.181-11.423-.319-.386-2.921-.301-3.136.101m77.231.122c-.646.598-.846 2.682-.272 2.832.186.048.372.22.414.382.116.442 2.891.438 3.128-.005.388-.724.158-2.986-.303-2.986-.143 0-.21-.05-.15-.11.675-.675-2.092-.786-2.817-.113M3.781 122.458c-.04.069-.087.799-.105 1.623-.038 1.78.134 1.558-1.236 1.602-1.497.049-1.64.201-1.58 1.672l.046 1.145h2.761v5.543c0 5.398.009 5.549.339 5.756.187.116.3.278.25.358-.141.228.088.676.345.676.128 0 .232.085.232.19 0 .322.83.977 1.239.977.249 0 .421.12.476.333.08.306.222.333 1.728.322 1.676-.012 2.291-.127 2.195-.412-.03-.088.302-.183.737-.21.537-.035.792-.125.792-.281 0-.126.153-.278.339-.337.535-.17.408-1.293-.198-1.741-.574-.424-2.096-.486-2.247-.091-.067.174-.339.25-.894.25-.555 0-.827-.076-.894-.25a.41.41 0 0 0-.351-.25.256.256 0 0 1-.255-.255.412.412 0 0 0-.25-.351c-.215-.082-.25-.813-.25-5.161V128.5h2.063c2.464 0 2.473-.006 2.403-1.61l-.049-1.14-2.209-.047L7 125.657v-1.561c0-1.269-.049-1.579-.264-1.662-.378-.145-2.869-.125-2.955.024m337.744 1.516c-.064 1.911.112 1.665-1.228 1.709-1.487.048-1.535.091-1.562 1.433-.029 1.356-.004 1.378 1.557 1.381l1.208.003v5.572c0 5.426.009 5.575.333 5.678.234.074.334.252.334.595 0 .323.084.488.25.488.137 0 .25.096.25.213 0 .32.687.859 1.215.954.255.046.443.15.416.231-.102.314.867.454 2.909.42 2.023-.034 2.216-.081 2.146-.526-.011-.069.052-.125.139-.125.864 0 1.281-1.626.583-2.273-.519-.48-2.242-.591-2.242-.144 0 .181-.185.25-.666.25-.482 0-.667-.069-.667-.25 0-.154-.157-.25-.409-.25-.225 0-.6-.191-.833-.424l-.425-.424V128.5h2.157c2.472 0 2.419.031 2.428-1.417.01-1.361-.068-1.405-2.537-1.411l-2.036-.005-.047-1.625-.048-1.625-1.586-.026-1.585-.027-.054 1.61M15.046 134.151l.037 8.432 1.29.049c2.168.082 1.96.986 1.96-8.536v-8.226l-.589-.11c-.324-.061-1.072-.095-1.662-.076l-1.073.035.037 8.432m8.494-.001l.043 8.433 1.412.023c.777.012 1.508-.015 1.625-.06.167-.064.213-1.236.213-5.397 0-4.614.033-5.316.25-5.316.175 0 .25-.176.25-.583 0-.321.057-.574.125-.564.347.055.523-.043.444-.247-.052-.136.052-.265.255-.318.189-.049.343-.201.343-.336s.158-.287.35-.338c.193-.05.301-.171.24-.269-.07-.113.106-.178.483-.178.417 0 .594-.075.594-.25 0-.198.238-.25 1.149-.25.867 0 1.172.061 1.244.25.056.146.306.25.601.25.317 0 .506.085.506.229 0 .125.262.406.582.625.422.287.582.519.583.846.001.248.113.512.249.589.21.117.254.986.292 5.716l.044 5.578 1.289.049c2.119.08 1.961.51 1.961-5.322 0-4.387.031-5 .25-4.916.275.105.294.025.251-1.037-.016-.4.038-.686.12-.635.173.107 1.045-.769 1.045-1.05 0-.106.072-.148.159-.094.087.054.239-.054.339-.24.12-.225.349-.338.685-.338.277 0 .462-.067.411-.149-.142-.23.34-.351 1.402-.351.707 0 .995.067 1.065.25.056.146.305.25.601.25.342 0 .505.082.505.255 0 .141.126.304.279.362.486.187.888.702.888 1.138 0 .232.112.465.25.518.215.083.25.866.25 5.644 0 4.905.03 5.559.263 5.649.339.129 2.206.127 2.695-.004l.375-.101v-6.21c0-5.317-.036-6.24-.25-6.418-.138-.114-.25-.367-.25-.563 0-.196-.249-.584-.553-.863-.304-.279-.606-.645-.67-.814-.065-.169-.158-.267-.208-.218-.11.111-.902-.664-.902-.883 0-.087-.263-.159-.584-.159-.387 0-.583-.078-.583-.232 0-.385-.452-.448-3.031-.425-2.31.021-2.469.043-2.469.34 0 .265-.124.317-.755.317-.518 0-.786.079-.851.25-.053.138-.171.25-.263.25-.243 0-.958.714-.961.959-.002.114-.11.208-.239.208-.13 0-.265.085-.299.188-.035.104-.28-.042-.546-.323-.266-.282-.544-.474-.618-.429-.074.046-.135-.071-.135-.259 0-.198-.108-.344-.255-.344a.41.41 0 0 1-.351-.25c-.053-.139-.301-.25-.559-.25-.322 0-.489-.101-.55-.333-.082-.315-.227-.333-2.674-.333-2.442 0-2.594.019-2.694.333-.074.235-.252.333-.6.333-.285 0-.534.106-.59.25-.052.138-.256.251-.453.253-.354.002-1.009.319-.69.333.091.004.029.087-.138.185-.396.23-.448.16-.511-.682-.066-.897-.265-1.015-1.645-.982l-1.126.027.043 8.433m31.738-8.372c-.272.271-.123 16.682.152 16.788.515.197 2.689.109 2.877-.117.124-.15.183-2.757.19-8.337l.009-8.118-.431-.164c-.483-.184-2.626-.224-2.797-.052m8.014.004c-.295.077-.476 15.877-.191 16.621.08.208.365.264 1.344.264 2.052 0 1.888.485 1.888-5.59 0-3.337.06-5.244.165-5.244.09 0 .268-.243.395-.541.441-1.037 1.862-2.292 2.594-2.292.419 0 .678-.087.74-.25.072-.189.378-.25 1.25-.25s1.177.061 1.25.25c.056.146.306.25.601.25.278 0 .487.059.464.13-.023.072.202.37.501.663.299.293.559.722.578.953.02.236.166.463.332.516.277.087.297.467.297 5.655 0 6.389-.186 5.791 1.785 5.736 1.671-.047 1.548.449 1.548-6.272 0-5.772-.008-5.914-.333-5.999-.273-.072-.333-.228-.333-.861 0-.678-.071-.832-.578-1.255-.318-.265-.539-.546-.491-.624.049-.078.009-.142-.088-.142-.096 0-.466-.263-.821-.583-.356-.321-.806-.584-1.001-.584-.195 0-.355-.104-.355-.231 0-.132-.248-.278-.579-.34-.742-.139-5.582-.1-5.562.045.052.392-.084.526-.531.526-.295 0-.545.104-.601.25-.052.138-.272.25-.487.25-.215 0-.582.191-.815.425l-.425.424v-.845c0-1.07-.96-1.469-2.541-1.055m24.041.22c0 .258-.112.331-.505.331-.295 0-.545.104-.601.25-.055.143-.303.25-.578.25-.318 0-.482.086-.482.25 0 .228-.395.336-.959.263-.114-.015-.208.04-.208.121 0 .082-.15.322-.333.533-.184.211-.334.56-.334.776 0 .236-.098.391-.25.391a.245.245 0 0 0-.25.238c0 .132-.15.287-.333.345-.274.087-.333.252-.333.928 0 .569-.065.809-.209.78-.156-.031-.22.501-.256 2.125-.05 2.258.029 3 .303 2.831.094-.059.162.176.162.562 0 .531.115.781.583 1.263.321.33.583.738.583.906 0 .46.757 1.188 1.234 1.188.229 0 .479.112.556.249.076.137.338.266.581.286.264.022.474.157.52.334.053.202.238.298.576.298.289 0 .538.105.594.25.079.207.537.25 2.689.25s2.61-.043 2.69-.25c.065-.17.331-.25.827-.25.55 0 .782-.082.939-.333.114-.184.302-.334.418-.334.115 0 .21-.112.21-.25 0-.139.148-.25.333-.25.524 0 .491 2.009-.042 2.542-.206.206-.426.358-.49.337-.063-.021-.161.11-.219.291-.058.182-.181.33-.274.33-.094 0-.395.254-.67.564-.328.372-.603.537-.804.485-.195-.051-.374.047-.493.269-.278.52-3.398.534-3.675.016-.147-.275-.349-.334-1.152-.334-.856 0-1.033-.059-1.453-.485-.263-.266-.665-.512-.895-.545-.229-.034-.398-.153-.375-.265.023-.113-.089-.213-.25-.224-.16-.01-.497-.043-.749-.073-.381-.045-.474.021-.556.394-.168.77-.229.889-.402.782-.104-.064-.168.216-.168.74 0 .621.063.843.239.843.131 0 .288.156.349.346.06.19.146.309.191.264.046-.045.226.062.402.237.208.209.551.32.986.32.481 0 .667.069.667.25 0 .166.166.25.5.25.275 0 .5.075.5.166 0 .106 1.333.167 3.666.167 2.334 0 3.667-.061 3.667-.167 0-.091.375-.166.833-.166.459 0 .834-.057.834-.127 0-.307.852-1.017 1.151-.96.318.062.552-.237.587-.747.025-.373.264-.685.44-.576.085.053.155-.021.155-.164 0-.143.112-.26.25-.26s.254-.018.26-.041c.005-.023.049-.492.097-1.042s.194-1.118.323-1.263c.197-.22.237-1.611.237-8.379v-8.116l-.428-.163c-.479-.182-1.462-.21-2.031-.057-.339.091-.376.204-.385 1.206-.009.866-.045 1.02-.168.713-.097-.242-.249-.357-.395-.301-.238.091-1.057-.436-1.31-.842-.073-.118-.29-.215-.482-.215a.789.789 0 0 1-.561-.291c-.351-.481-6.074-.518-6.074-.04m27.215-.002c-.062.237-.227.333-.573.333-.278 0-.526.107-.581.25a.433.433 0 0 1-.38.25c-.156 0-.429.11-.607.245a1.505 1.505 0 0 1-.763.25c-.785.01-.908 1.504-.19 2.322.571.651 1.892.759 2.251.183.115-.183.303-.333.418-.333.116 0 .21-.113.21-.25 0-.196.23-.25 1.066-.25.793 0 1.09-.064 1.161-.25.073-.189.378-.25 1.25-.25s1.178.061 1.25.25c.053.137.245.25.426.25.453 0 1.181.709 1.181 1.149 0 .199.112.405.25.457.179.069.25.35.25.995v.899h-3.334c-2.711 0-3.333.043-3.333.228 0 .148-.272.259-.775.316-.467.053-.835.194-.925.355-.085.151-.363.268-.642.268-.326 0-.491.084-.491.25 0 .137-.107.25-.237.25-.131 0-.29.24-.355.539-.065.297-.224.616-.352.71-.311.227-.254 4.356.059 4.296.109-.021.245.11.302.291.058.182.208.33.333.33.136 0 .25.22.281.542.044.454.127.55.52.595.258.03.509.161.56.292.05.131.308.238.573.238.301 0 .482.087.482.232 0 .583 5.2.663 5.509.085.097-.182.347-.317.586-.317.229 0 .459-.113.512-.25.052-.138.271-.25.485-.25.214 0 .435-.075.492-.167.222-.36.416-.135.416.483 0 .437.086.681.264.75.337.129 1.54.126 2.028-.004l.375-.101v-6.305c0-5.378-.036-6.326-.245-6.443-.135-.076-.273-.315-.306-.532-.033-.217-.166-.478-.296-.58-.13-.101-.261-.372-.29-.601-.054-.414-.71-1.041-1.159-1.107-.128-.019-.358-.146-.51-.282a1.533 1.533 0 0 0-.694-.304c-.229-.031-.393-.132-.365-.224.091-.294-.658-.383-3.359-.4-2.508-.015-2.645 0-2.728.317m14.72-.07c-.056.145-.101 3.928-.101 8.406 0 9.36-.209 8.397 1.802 8.313 1.647-.069 1.531.347 1.531-5.515 0-4.362.039-5.196.25-5.408.137-.137.25-.436.25-.664 0-.252.07-.372.178-.305.098.06.219-.047.269-.24.051-.193.187-.35.303-.35.116 0 .25-.15.298-.334.048-.183.207-.333.353-.333s.266-.113.266-.25c0-.211.398-.25 2.583-.25 1.421 0 2.583.064 2.583.142 0 .21.789 1.025.992 1.025.096 0 .175.227.175.505 0 .295.104.545.25.601.215.083.25.866.25 5.641v5.544l.521.105c.656.131 1.946.13 2.437-.001l.375-.101v-5.736c0-4.944-.034-5.749-.25-5.831-.181-.07-.25-.356-.25-1.048 0-.867-.049-.995-.55-1.44-.303-.269-.602-.625-.666-.792-.063-.166-.19-.255-.282-.198-.093.057-.168-.013-.168-.156s-.095-.26-.21-.26c-.116 0-.304-.15-.418-.333-.158-.253-.389-.334-.957-.334-.526 0-.749-.068-.749-.23 0-.577-5.301-.677-5.451-.103-.062.237-.228.333-.573.333-.268 0-.526.105-.576.234-.049.128-.349.282-.666.342-.317.059-.537.171-.489.249.087.14-.402.407-.523.286-.035-.035-.084-.379-.108-.764-.054-.871-.265-1.008-1.554-1.011-.782-.002-1.048.06-1.125.261m50.277.07c-.157.183-.44.333-.628.333-.189 0-.474.154-.634.341-.161.187-.367.294-.458.237-.092-.056-.146-.031-.121.056.043.15-.325.588-1.283 1.529-.512.503-.663 4.186-.182 4.454.131.074.268.353.304.621.053.395.158.499.553.549.268.034.571.171.672.304.102.134.262.243.356.243.094 0 .21.15.258.333.07.271.227.333.835.333.511 0 .778.08.843.25.076.198.425.25 1.674.25 1.355 0 1.59.041 1.67.292.065.205.294.303.77.331.373.021.792.152.931.291.138.139.322.253.407.253.085 0 .155.112.155.25 0 .137.112.25.25.25.175 0 .25.177.25.589 0 .369-.093.624-.25.684-.138.053-.25.2-.25.328 0 .154-.196.232-.584.232-.407 0-.583.076-.583.25 0 .204-.276.25-1.482.25-1.164 0-1.503-.053-1.578-.25-.07-.182-.357-.25-1.061-.25-.785 0-1.004-.062-1.174-.333a.793.793 0 0 0-.623-.333c-.242 0-.415-.096-.415-.23 0-.552-2.047-.25-2.122.313-.037.274-.175.559-.306.633-.321.18-.328 1.45-.008 1.45.126 0 .269.15.317.334.07.266.228.333.782.333.394 0 .802.108.944.25.137.137.423.25.635.25.245 0 .417.121.473.333.082.317.227.334 2.852.334 2.544 0 2.793-.027 3.099-.334.253-.253.556-.333 1.256-.333.636 0 .949-.072 1.011-.234.049-.128.242-.273.428-.322.187-.048.29-.168.229-.265-.06-.098.074-.261.299-.363a1.59 1.59 0 0 0 .627-.597c.121-.226.355-.483.519-.571.409-.219.452-3.433.048-3.588-.138-.052-.25-.243-.25-.422 0-.557-.322-.971-.756-.971-.226 0-.411-.075-.411-.167 0-.092-.11-.167-.244-.167s-.324-.15-.422-.333c-.132-.246-.349-.333-.831-.333-.448 0-.704-.092-.816-.292-.133-.238-.45-.302-1.717-.35-1.107-.042-1.591-.126-1.686-.292-.082-.143-.412-.233-.857-.233-.49 0-.755-.081-.82-.25a.41.41 0 0 0-.351-.25.254.254 0 0 1-.256-.25.25.25 0 0 0-.25-.25c-.18 0-.25-.185-.25-.667 0-.481.07-.666.25-.666.138 0 .25-.108.25-.239s.15-.286.334-.345c.183-.058.333-.213.333-.344 0-.172.211-.239.755-.239.518 0 .786-.079.851-.25.073-.189.378-.25 1.245-.25.91 0 1.149.052 1.149.25 0 .175.176.25.583.25.386 0 .584.078.584.231 0 .126.168.275.375.331.939.251 2.603-.025 2.375-.395-.057-.092.014-.167.156-.167.143 0 .266-.056.272-.125.007-.069.046-.407.088-.752.099-.807-.161-1.29-.694-1.29-.229 0-.459-.112-.512-.25-.072-.187-.371-.25-1.189-.25-.602 0-1.045-.049-.985-.108.374-.374-.598-.548-3.096-.553-2.424-.005-2.649.02-2.912.328m17.467-.012c-.234.234-.56.345-1.012.345-.481 0-.667.07-.667.25 0 .143-.15.25-.349.25-.393 0-1.317.498-1.317.71 0 .076-.413.541-.917 1.033-.541.528-.917 1.04-.917 1.248 0 .194-.103.393-.23.442-.127.048-.279.393-.339.765-.059.373-.218.835-.353 1.027-.421.601-.348 4.63.089 4.903.183.115.333.368.333.564 0 .195.113.438.25.54.137.102.266.391.286.643.021.252.106.459.19.459.195 0 .941.799.941 1.008 0 .087.079.158.175.158.203 0 .992.815.992 1.025 0 .078.227.142.505.142.295 0 .545.104.601.25.064.167.327.25.788.25.512 0 .746.087.9.333.193.309.389.334 2.624.334 2.193 0 2.446-.031 2.748-.334.184-.183.483-.333.666-.333.182 0 .546-.225.809-.499.262-.275.713-.547 1.001-.604.461-.093.524-.172.524-.656 0-.387.085-.566.286-.605.484-.093.371-.97-.202-1.562-.618-.638-2.059-.787-2.205-.228a.662.662 0 0 1-.399.41c-.175.056-.275.171-.222.256.052.085-.097.155-.333.155-.235 0-.556.15-.713.333-.157.183-.459.333-.671.333-.211 0-.428.113-.48.25-.073.189-.376.25-1.227.25-.852 0-1.155-.061-1.227-.25-.056-.146-.306-.25-.601-.25-.278 0-.506-.071-.506-.158 0-.087-.187-.36-.416-.607-.229-.248-.417-.383-.418-.301-.001.082-.15-.075-.332-.35-.182-.275-.332-.444-.333-.375 0 .068-.301-.175-.667-.542l-.667-.667v-2.25c0-1.889.04-2.25.25-2.25.137 0 .25-.103.25-.23s.145-.269.321-.315c.222-.058.338-.259.375-.644.03-.308.116-.523.191-.477.075.045.207-.042.292-.196.086-.153.381-.328.655-.388.275-.06.499-.216.499-.346 0-.14.166-.237.405-.237.223 0 .517-.113.655-.25.15-.15.557-.25 1.017-.25.528 0 .797.078.863.25.067.175.34.25.911.25.586 0 .816.065.816.232 0 .239.345.435.764.435.26 0 .903.58.903.815 0 .318 1.377.301 1.461-.017.067-.258.553-.401 1.08-.318.137.022.138.018.18-.792.019-.36-.07-.631-.248-.755-.153-.107-.303-.411-.334-.676-.046-.393-.148-.493-.556-.546-.279-.037-.698-.282-.949-.555-.247-.269-.614-.49-.815-.49a.809.809 0 0 1-.579-.291c-.356-.489-4.915-.534-5.395-.054m15.866.012c-.157.183-.459.333-.67.333-.212 0-.428.113-.481.25-.056.145-.305.25-.594.25-.351 0-.522.095-.582.322-.05.191-.179.286-.317.232-.129-.049-.234.004-.234.117 0 .114-.263.454-.583.757-.321.302-.584.63-.584.728 0 .098-.114.178-.254.178-.148 0-.295.204-.352.489-.054.269-.202.529-.329.578-.127.049-.231.298-.231.554 0 .28-.129.546-.324.667-.297.186-.324.408-.324 2.712 0 2.304.027 2.525.324 2.711a.768.768 0 0 1 .324.584c0 .21.112.425.25.478.137.052.25.238.25.411 0 .174.15.466.333.649.183.183.333.362.333.396 0 .149 1.31 1.437 1.461 1.437.092 0 .206.15.254.334.064.242.228.333.603.333.347 0 .516.082.516.25 0 .188.201.25.814.25.681 0 .828.056.903.343.086.33.192.341 2.77.311 2.581-.03 2.772-.068 2.699-.529-.011-.069.197-.125.463-.125.265 0 .523-.107.573-.239.051-.131.34-.262.643-.291.337-.033.535-.136.509-.265-.024-.116.145-.297.375-.402.229-.104.417-.249.417-.322 0-.073.342-.469.76-.881.418-.412.772-.909.787-1.105a.705.705 0 0 1 .323-.515c.163-.087.297-.346.297-.574 0-.229.112-.46.25-.512.208-.08.25-.544.25-2.745 0-2.244-.038-2.649-.25-2.649-.166 0-.25-.166-.25-.491a.882.882 0 0 0-.375-.753c-.206-.144-.356-.298-.333-.343.138-.265.003-.746-.209-.746a.251.251 0 0 1-.25-.25.245.245 0 0 0-.238-.25c-.132 0-.286-.149-.344-.33-.058-.182-.19-.313-.295-.292-.105.021-.194-.052-.198-.162-.009-.235-.425-.688-.425-.463 0 .085-.116-.013-.259-.216-.143-.204-.435-.371-.649-.371-.214 0-.433-.112-.485-.25-.066-.171-.334-.25-.851-.25-.53 0-.756-.068-.756-.229 0-.568-4.976-.663-5.455-.104m15.168 8.134l.037 8.449 1.391.049c2.01.07 1.859.523 1.859-5.569 0-4.537.033-5.23.25-5.23.258 0 .309-.144.281-.797-.009-.209.041-.345.111-.301.159.098 1.025-.801 1.025-1.063 0-.106.08-.142.178-.082.098.061.219-.047.269-.24.085-.325.206-.35 1.721-.35 1.898 0 1.832.064 1.832-1.768 0-1.489-.152-1.601-2.115-1.549-1.064.028-1.218.072-1.218.341 0 .233-.125.309-.506.309-.295 0-.545.104-.601.25-.052.138-.258.25-.457.25s-.491.15-.648.334c-.426.497-.621.406-.624-.292-.004-1.005-.162-1.121-1.57-1.157l-1.252-.032.037 8.448m11.374-8.109c-.053.215-.075 4.029-.05 8.475l.047 8.083 1.46.015c.965.01 1.518-.054 1.63-.189.206-.249.146-16.312-.062-16.52-.384-.384-2.927-.269-3.025.136m8.405.081c-.296.779-.131 16.204.175 16.398.507.32 2.803.198 2.994-.16.108-.202.173-2.225.173-5.422 0-4.379.035-5.113.25-5.195.142-.055.25-.303.25-.578 0-.313.086-.482.244-.482.134 0 .325-.152.425-.338.099-.186.252-.294.339-.24.087.053.158-.02.158-.162 0-.511.629-.927 1.399-.927.497 0 .763-.08.828-.25.072-.187.371-.25 1.19-.25s1.118.063 1.19.25c.054.143.303.25.578.25.33 0 .482.084.482.266 0 .146.149.304.331.352.183.048.294.148.248.222-.046.075.067.184.252.243.212.067.336.252.336.5 0 .216.112.506.25.643.212.212.25 1.083.25 5.744 0 6.253-.157 5.697 1.608 5.697 1.871 0 1.725.509 1.725-6.011 0-4.883-.035-5.68-.25-5.762-.181-.07-.25-.353-.25-1.025 0-.838-.054-.979-.553-1.44-.304-.282-.603-.648-.665-.815-.062-.166-.183-.258-.269-.205-.086.052-.204-.055-.262-.24-.059-.185-.214-.336-.346-.336a.245.245 0 0 1-.238-.25c0-.186-.197-.25-.774-.25-.544 0-.836-.086-.986-.291-.381-.523-5.632-.516-5.53.007.022.11-.171.225-.429.255-.257.029-.509.16-.559.291-.051.133-.312.238-.589.238-.357 0-.522.094-.585.332-.047.182-.161.285-.253.228-.091-.056-.231.001-.311.127-.093.147-.147-.11-.148-.711-.003-1.095-.066-1.142-1.521-1.142-.917 0-1.003.032-1.157.439M272.75 126c-.087.273-.252.333-.91.333-.561 0-.833.076-.9.25-.053.138-.288.25-.523.25-.235 0-.471.113-.523.25-.056.145-.305.25-.594.25-.352 0-.523.095-.582.322-.046.177-.189.362-.318.412-.128.049-.233.261-.233.47 0 .232-.229.572-.584.868-.499.416-.583.589-.583 1.196 0 .551-.071.732-.317.811-.504.16-.524 4.442-.023 4.871.224.192.34.494.34.884s.116.692.34.884c.188.16.295.366.238.458-.057.091-.041.155.035.142.405-.07.554.064.554.498 0 .275.107.523.25.578.137.053.25.211.25.351 0 .173.163.255.508.255.472 0 1.325.653 1.325 1.014 0 .073.244.155.542.184.324.031.525.136.5.261-.068.338 5.888.297 6.018-.042.06-.155.314-.25.671-.25.758 0 1.102-.144 1.102-.462 0-.143.05-.211.11-.151.151.151.575-.222.462-.406-.05-.081.063-.148.252-.148.446 0 .533 2.271.093 2.44-.138.053-.25.2-.25.328s-.077.232-.171.232c-.094 0-.509.338-.921.75l-.75.75h-3.069c-1.696 0-3.112-.069-3.164-.154-.053-.084-.313-.201-.58-.26-.266-.058-.525-.214-.576-.346-.052-.136-.311-.24-.597-.24-.321 0-.505-.084-.505-.232 0-.275-.73-.49-1.181-.347-.219.07-.319.255-.319.591 0 .32-.085.488-.247.488-.302 0-.494.684-.352 1.25.058.23.216.417.352.417.136 0 .247.083.247.185 0 .356.753.976 1.19.979.242.001.484.115.537.253.065.171.333.25.851.25.415 0 .755.075.755.166 0 .106 1.333.167 3.667.167 2.333 0 3.666-.061 3.666-.167 0-.091.294-.166.653-.166.522 0 .774-.119 1.265-.596.337-.327.713-.556.835-.51.281.108.531-.19.61-.728.034-.229.154-.398.266-.375.185.038.277-.167.224-.5-.01-.068.085-.125.213-.125.282 0 .434-.359.434-1.025 0-.274.113-.611.25-.748.39-.39.376-17.143-.013-17.292-1.398-.536-2.57.014-2.57 1.206 0 .408-.059.452-.583.448-.443-.004-.583-.076-.584-.297 0-.16-.115-.292-.255-.292a.41.41 0 0 1-.351-.25c-.053-.139-.301-.25-.559-.25-.322 0-.489-.101-.55-.333-.082-.315-.227-.333-2.674-.333-2.442 0-2.594.019-2.694.333m25.449.015c-.15.175-.456.318-.679.318-.395 0-1.687 1.154-1.687 1.507 0 .088-.154.16-.343.16-.189 0-.305.062-.258.137.046.075-.062.262-.241.415-.434.372-.499 4.225-.074 4.388.139.053.25.301.25.56 0 .464.248.667.817.667.159 0 .499.262.754.583.402.503.563.583 1.179.583.481 0 .745.082.81.25.076.198.425.25 1.673.25 1.356 0 1.591.041 1.671.292.066.205.295.303.77.33.372.021.79.153.93.292.139.139.322.253.408.253.085 0 .154.112.154.25 0 .137.113.25.25.25.398 0 .313.97-.125 1.432-.307.324-.544.396-1.315.398-.68.003-.967.072-1.037.253-.074.195-.405.25-1.497.25-1.042 0-1.455-.064-1.609-.25-.114-.137-.386-.25-.604-.25-.218 0-.396-.099-.396-.22 0-.122-.281-.293-.625-.382-.344-.088-.61-.239-.593-.334.019-.101-.362-.19-.901-.212-.993-.04-1.207.097-1.212.773-.001.219-.105.375-.249.375-.296 0-.494.672-.34 1.155.06.19.208.345.328.345.121 0 .259.15.307.334.071.271.227.333.835.333.498 0 .779.08.84.241.058.152.386.259.893.291.44.028.783.126.762.218-.125.539 5.169.603 5.504.066.154-.246.394-.316 1.081-.316.845 0 1.87-.474 1.87-.865 0-.192.634-.802.833-.802.092 0 .167-.063.167-.141 0-.077.15-.314.333-.525.424-.489.512-3.667.102-3.667-.128 0-.284-.206-.347-.457-.144-.576-.39-.876-.715-.876-.14 0-.469-.225-.731-.5-.453-.474-.548-.5-1.81-.5-1.073 0-1.332-.049-1.332-.25 0-.138-.131-.262-.292-.276a4.314 4.314 0 0 1-.458-.064c-.092-.021-.49-.047-.885-.058-.395-.01-.677-.086-.626-.168.129-.208-.314-.351-1.086-.351-.469 0-.653-.07-.653-.25a.256.256 0 0 0-.26-.25c-.143 0-.21-.08-.15-.178.061-.098-.047-.219-.24-.269-1.105-.289.36-2.553 1.652-2.553.405 0 .663-.089.725-.25.073-.189.38-.25 1.268-.25.93 0 1.172.051 1.172.25 0 .162.162.25.463.25.256 0 .59.148.748.333.444.518 2.622.433 2.622-.102 0-.127.112-.231.25-.231.137 0 .257-.056.264-.125l.082-.708c.116-.998-.037-1.334-.604-1.334-.293 0-.542-.104-.598-.25-.072-.185-.366-.25-1.142-.25-.913 0-1.058-.043-1.135-.34-.133-.506-5.483-.487-5.918.022m10.219-.076c-.374.374-.324 1.502.082 1.85.237.203.333.491.333.998 0 .523.067.713.25.713.154 0 .25.156.25.403 0 .546.169.949.351.836.144-.088.221.27.159.732-.017.122.124.262.313.311.248.065.344.226.344.576 0 .278.107.527.25.582.137.052.25.238.25.411 0 .174.15.466.333.649.223.223.334.556.334 1.005 0 .444.085.705.25.768.143.055.25.304.25.583 0 .271.106.529.239.58.132.05.287.304.344.564.057.26.212.514.344.564.135.052.239.312.239.597 0 .338.083.506.25.506.166 0 .25.165.25.491 0 .286.117.557.278.648.7.391.197 3.503-.569 3.522-.115.003-.209.08-.209.172 0 .209-.709.93-.865.878-.063-.021-.161.111-.219.292-.148.465-1.166.462-1.416-.003a.692.692 0 0 0-.575-.334c-.218 0-.427-.091-.464-.202-.177-.53-2.04-.254-2.095.31-.034.354-.157.553-.375.61-.902.236.056 2.116 1.078 2.116.237 0 .431.075.431.166 0 .103.834.167 2.167.167 1.333 0 2.167-.064 2.167-.167 0-.091.296-.166.659-.166.568 0 .784-.121 1.573-.879.503-.483.994-.852 1.091-.819.103.034.177-.192.177-.538 0-.42.074-.598.25-.598.174 0 .25-.176.25-.583 0-.321.056-.574.125-.564.369.059.462-.092.502-.812.026-.46.148-.868.292-.976.136-.101.247-.374.247-.605 0-.283.111-.45.339-.509.257-.068.321-.191.264-.507-.046-.253.011-.452.145-.503.121-.047.273-.32.336-.607.063-.288.22-.563.349-.613.129-.049.234-.307.234-.572 0-.312.086-.482.244-.482.167 0 .279-.261.354-.823.061-.461.21-.862.339-.912.126-.048.23-.315.23-.593 0-.338.082-.505.25-.505.247 0 .276-.058.308-.625a.73.73 0 0 1 .249-.471c.127-.098.255-.392.284-.653.029-.262.17-.541.314-.622.144-.08.261-.326.261-.546 0-.22.111-.462.247-.538.135-.076.284-.436.33-.8.047-.364.199-.745.338-.847.138-.102.252-.385.252-.63s.112-.489.25-.541c.137-.053.25-.276.25-.495 0-.22.15-.549.333-.732.926-.926.192-1.544-1.737-1.465l-1.179.048-.053.542c-.045.469-.165.6-.531.575-.046-.003-.1.228-.121.513-.02.285-.151.583-.291.661-.14.078-.254.355-.254.615 0 .332-.099.498-.334.559-.272.071-.333.227-.333.853 0 .538-.068.765-.229.765-.137 0-.229.179-.229.446 0 .245-.122.534-.271.643-.149.109-.271.378-.271.598 0 .22-.15.493-.333.608a.793.793 0 0 0-.334.606c0 .218-.112.44-.25.493-.146.056-.25.306-.25.601 0 .321-.084.505-.232.505-.309 0-.402.291-.326 1.022.053.504.005.62-.289.697-.194.051-.317.154-.274.228.044.075.028.279-.035.453-.148.406-.751-.764-.631-1.223.043-.167-.057-.374-.235-.485-.171-.107-.311-.307-.311-.444s-.15-.529-.333-.871c-.184-.342-.334-.717-.334-.833 0-.115-.112-.21-.25-.21-.152 0-.25-.155-.25-.397 0-.218-.112-.489-.25-.603-.137-.114-.251-.405-.252-.646-.003-.676-.182-1.188-.413-1.188-.116 0-.21-.198-.21-.445 0-.245-.122-.534-.27-.643a.74.74 0 0 1-.271-.529c0-.182-.142-.459-.316-.616-.176-.16-.28-.419-.235-.59.048-.185-.056-.399-.268-.548-.191-.133-.364-.442-.384-.686-.02-.243-.106-.443-.19-.443-.085 0-.249-.13-.366-.289-.288-.394-2.124-.471-2.49-.105m20.231.079c-.217.217-.552.315-1.076.315-.437 0-.718.068-.662.159.054.087-.054.239-.24.339-.186.099-.338.288-.338.42 0 .146-.099.201-.256.14-.142-.054-.235-.023-.209.068.053.184-.883 1.136-1.064 1.083-.424-.126-.342 4.063.086 4.376.136.099.273.403.304.673.048.42.136.5.598.545.335.032.541.143.541.291 0 .132.095.24.21.24.116 0 .296.138.402.307.146.234.423.314 1.161.339.653.021 1.015.111 1.107.276.102.182.468.244 1.443.244 1.125 0 1.316.042 1.385.305.06.229.256.312.784.333.554.022.797.134 1.143.528.242.276.535.501.652.501.366 0 .243.95-.181 1.408-.333.36-.54.425-1.338.425-.686 0-.971.069-1.041.25-.072.188-.375.25-1.224.25-.8 0-1.189-.072-1.336-.25-.115-.138-.478-.25-.814-.25-.433 0-.667-.098-.823-.347-.122-.196-.321-.307-.455-.256-.132.051-.371-.043-.532-.208-.324-.333-1.936-.497-2.11-.215-.055.09-.117.357-.136.595-.022.267-.136.431-.299.431-.182 0-.275.181-.303.591-.057.854.688 1.576 1.626 1.576.493 0 .679.069.679.25 0 .162.163.25.463.25.257 0 .59.148.749.333.495.578 5.955.486 5.955-.101 0-.172.256-.232.999-.232h1l1.318-1.298 1.319-1.297.003-1.618c.002-1.306-.048-1.646-.262-1.766-.145-.081-.346-.4-.447-.709-.154-.472-.256-.557-.64-.528-.262.019-.458-.052-.46-.167-.007-.541-.784-.95-1.801-.95-.812 0-1.024-.057-1.099-.292-.076-.238-.33-.301-1.386-.344-.907-.037-1.333-.124-1.427-.292-.081-.145-.394-.239-.797-.239-.436 0-.697-.086-.76-.25-.052-.138-.163-.25-.244-.25-.636 0-1.136-1.675-.566-1.894.137-.052.25-.202.25-.331 0-.13.158-.277.35-.328.193-.05.301-.171.24-.269-.072-.117.173-.178.716-.178.58 0 .854-.074.921-.25.072-.187.371-.25 1.19-.25.818 0 1.118.063 1.189.25.055.142.303.25.573.25.305 0 .54.119.654.333.294.549 2.667.459 2.667-.101 0-.128.112-.232.25-.232.188 0 .25-.202.25-.82 0-1.121-.114-1.347-.684-1.347-.318 0-.483-.085-.483-.25 0-.198-.242-.25-1.176-.25-.744 0-1.139-.061-1.073-.167.364-.59-4.851-.733-5.435-.148m28.832.001c-.202.202-.549.314-.973.314-.405 0-.711.094-.795.245-.075.134-.371.262-.657.284-.346.026-.492.111-.437.255.077.199-.325.302-.898.232-.108-.014-.242.121-.298.298-.056.177-.212.364-.346.416-.134.051-.244.281-.244.51 0 .253-.228.644-.583.999-.44.44-.583.724-.583 1.155 0 .353-.095.607-.25.667-.205.078-.25.498-.25 2.337 0 2.259.076 2.844.35 2.675.083-.051.15.213.15.586 0 .472.101.765.333.963.183.157.333.485.333.729 0 .311.105.471.35.535.207.054.303.169.234.281-.069.112.025.226.231.28.192.05.307.158.256.24-.05.082.044.201.21.264.167.064.537.363.822.666.286.302.672.55.858.55.185 0 .38.112.433.25.055.143.304.25.582.25.345 0 .511.096.573.333.083.318.227.334 3.102.334 2.794 0 3.041-.025 3.349-.334.184-.183.478-.333.655-.333a.946.946 0 0 0 .572-.25c.137-.138.442-.25.678-.25.281 0 .429-.091.429-.266 0-.146.15-.304.333-.352.183-.048.333-.191.333-.318s.113-.231.25-.231c.186 0 .25-.195.25-.755 0-.517-.078-.785-.25-.851-.137-.053-.25-.232-.25-.398 0-.855-1.333-1.282-1.58-.506-.068.214-.283.341-.636.375-.294.029-.519.127-.502.219.018.091-.114.22-.292.286-.177.066-.323.235-.323.375 0 .447-5.013.373-5.295-.078-.114-.183-.361-.333-.548-.333-.303 0-1.156-.725-1.157-.983-.001-.055-.218-.246-.484-.424-.355-.238-.464-.425-.413-.708.039-.212-.011-.385-.11-.385-.098 0-.134-.074-.078-.165.059-.095-.008-.123-.156-.066-.184.071-.259-.003-.259-.252 0-.351.001-.351 6.486-.351 3.568 0 6.605-.045 6.75-.101.382-.146.396-3.732.014-3.732-.216 0-.369-.859-.273-1.532.009-.063-.132-.161-.314-.219-.181-.058-.33-.212-.33-.344a.245.245 0 0 0-.25-.238c-.154 0-.25-.157-.25-.407 0-.481-.885-1.517-1.155-1.351-.103.064-.452-.15-.782-.48-.51-.509-.706-.596-1.357-.596-.419 0-.712-.049-.651-.11.06-.06-.038-.214-.22-.341-.547-.383-4.275-.275-4.687.137m13.528-.036c-.308.576-.224 16.112.089 16.425.266.266 2.074.364 2.852.156l.366-.098.013-5.271c.011-4.461.051-5.291.259-5.407.135-.076.245-.359.245-.63 0-.32.085-.491.244-.491.135 0 .326-.152.425-.338.1-.186.253-.294.34-.24.087.053.158-.02.158-.162 0-.516.628-.927 1.417-.927.555 0 .75-.065.75-.25 0-.192.213-.25.916-.25.704 0 .917.058.917.25 0 .175.176.25.583.25.321 0 .584.078.584.172 0 .095.222.39.494.655.271.266.542.677.602.914.059.236.211.488.337.558.185.104.237 1.182.273 5.706l.044 5.578 1.461.025c1.907.032 1.789.39 1.789-5.413 0-4.136.035-4.84.25-4.922.171-.066.25-.334.25-.851 0-.415.056-.746.125-.736.333.053.551-.036.457-.187-.057-.092.011-.212.151-.266.14-.053.297-.232.349-.397.053-.165.25-.341.44-.39.189-.05.295-.17.235-.268-.069-.111.075-.178.382-.178.283 0 .532-.106.588-.25.072-.189.379-.25 1.267-.25.931 0 1.172.051 1.172.25 0 .175.176.25.584.25.422 0 .583.073.583.266 0 .146.149.304.331.352.183.048.294.148.247.224-.047.076.039.207.19.292.151.084.293.333.316.551.064.636.07.648.33.648.214 0 .254.778.292 5.625l.044 5.625 1.391.049c.882.031 1.477-.022 1.625-.145.361-.3.346-12.353-.016-12.654a.78.78 0 0 1-.25-.526c0-.313-.877-1.307-1.153-1.307-.078 0-.183-.158-.233-.35-.058-.223-.166-.304-.295-.224-.116.071-.161.056-.105-.035.156-.252-.805-1.058-1.263-1.058-.272 0-.442-.113-.499-.333-.083-.315-.228-.333-2.702-.333-2.474 0-2.619.018-2.702.333-.072.276-.227.333-.906.333-.694 0-.842.058-.97.375-.083.207-.156.308-.161.226-.014-.194-.844.7-.844.908 0 .087-.155.158-.344.158-.23 0-.301.069-.218.208.191.317-.417-.189-1.301-1.083-.529-.535-.921-.792-1.21-.792-.251 0-.427-.094-.427-.229 0-.331-.775-.439-3.063-.426-2.03.012-2.675.115-2.575.412.03.088-.156.184-.414.214-.257.029-.509.16-.559.291-.051.133-.312.238-.589.238-.357 0-.523.094-.585.332-.048.182-.161.285-.253.228-.091-.056-.232.001-.312.127-.093.147-.146-.109-.148-.709-.003-1.075-.093-1.138-1.621-1.142-.685-.002-.906.065-1.039.314M91.833 128.75c0 .173.174.25.564.25.424 0 .586.083.651.333.06.227.228.334.525.334.241 0 .481.112.533.25.053.137.192.25.309.25.117 0 .254.157.304.35.051.193.172.3.27.24.103-.064.178.028.178.22 0 .506.178.856.434.856.185 0 .232.396.232 1.96v1.959l-.583.486c-.36.3-.583.635-.583.874 0 .369-.211.476-.792.4-.115-.014-.208.041-.208.123 0 .296-.825 1.032-1.158 1.032-.187 0-.433.15-.548.333-.18.288-.388.333-1.544.333-1.156 0-1.365-.045-1.545-.333a.773.773 0 0 0-.583-.333c-.216 0-.604-.25-.915-.589-.297-.324-.541-.545-.541-.49 0 .054-.31-.262-.69-.703-.38-.441-.793-.826-.917-.856-.403-.096-.317-4.058.094-4.315.175-.11.301-.323.279-.473-.046-.316 1.134-1.574 1.477-1.574.413 0 .757-.198.757-.435 0-.145.181-.232.483-.232.274 0 .523-.107.578-.25.075-.195.407-.25 1.517-.25 1.153 0 1.422.047 1.422.25m66.227 0c.053.137.259.25.457.25.355 0 1.15.698 1.15 1.009 0 .087.225.158.5.158.278 0 .508.092.519.208.01.115.037.283.058.375.021.092.05.26.064.375.014.115.138.208.275.208a.25.25 0 0 1 .25.25c0 .138.113.25.25.25.209 0 .25.345.25 2.101 0 1.652-.046 2.084-.216 2.019-.143-.055-.229.088-.254.428-.023.289-.185.613-.374.746-.185.129-.426.34-.537.469-1.118 1.301-1.625 1.737-2.019 1.737-.274 0-.433.092-.433.25 0 .198-.238.25-1.146.25-.816 0-1.206-.072-1.354-.25-.128-.154-.494-.25-.955-.25-.596 0-.728-.05-.651-.25.052-.137.024-.25-.063-.25s-.441-.278-.786-.619c-.346-.341-.69-.602-.766-.579-.075.022-.091-.034-.035-.125.056-.091-.051-.261-.238-.378-.208-.13-.339-.39-.339-.672 0-.298-.089-.46-.25-.46-.206 0-.25-.303-.25-1.73 0-1.334.057-1.777.25-1.937.137-.114.25-.367.251-.562.001-.214.331-.647.834-1.093.457-.406.831-.837.831-.958s.057-.211.125-.2c.335.053.538-.04.5-.228-.024-.121.169-.232.459-.265.275-.031.56-.162.633-.291.197-.349 2.876-.336 3.01.014m59.213 0c.053.137.272.25.487.25.374 0 1.907 1.351 1.907 1.68 0 .079.125.095.279.036.215-.083.253-.04.166.187-.081.21-.018.319.221.382.238.062.334.227.334.573 0 .278.107.527.25.582.2.077.25.444.25 1.846 0 1.487-.038 1.735-.25 1.654-.192-.074-.25.035-.25.471 0 .422-.086.594-.336.673-.185.059-.293.176-.24.261.052.085-.017.155-.153.155-.137 0-.296.15-.355.333-.058.184-.213.334-.344.334-.132 0-.239.071-.239.159 0 .457-.868 1.007-1.591 1.007-.505 0-.729.067-.701.209.067.334-1.727.382-1.913.051-.096-.173-.386-.26-.867-.26-.594 0-.739-.062-.814-.35-.05-.193-.171-.3-.269-.24-.098.061-.178.034-.178-.059 0-.218-.878-1.107-1.042-1.056-.069.021-.125-.076-.125-.217a.412.412 0 0 0-.25-.351c-.138-.052-.25-.277-.25-.5 0-.222-.113-.447-.25-.5-.35-.134-.369-3.525-.021-3.658.126-.049.229-.284.229-.524 0-.239.122-.524.271-.633.149-.109.271-.288.271-.398 0-.11.061-.163.135-.117.163.101 1.032-.789 1.032-1.058 0-.106.08-.142.178-.082.098.061.219-.047.269-.24.07-.269.223-.35.655-.35.391 0 .564-.077.564-.25 0-.203.269-.25 1.422-.25 1.11 0 1.443.055 1.518.25m59.287 0c.056.145.305.25.596.25.328 0 .56.114.677.333a.691.691 0 0 0 .59.334c.254 0 .41.095.41.25 0 .139.148.25.334.25.185 0 .333.111.333.25 0 .137.112.25.25.25.175 0 .25.176.25.583 0 .413.075.583.255.583.218 0 .248.3.208 2.042-.034 1.525-.099 2.031-.255 2-.114-.023-.208.1-.208.272 0 .177-.15.353-.344.404-.189.049-.33.189-.313.311.064.474-.028.6-.51.696-.293.059-.5.205-.5.354 0 .146-.146.255-.343.255-.189 0-.296.075-.239.168.107.173-.011.233-.792.404-.251.055-.439.193-.416.306.029.147-.372.219-1.418.253-1.203.04-1.458.005-1.458-.2 0-.144-.254-.319-.604-.416-.538-.148-1.729-1.22-1.73-1.557 0-.069-.075-.125-.166-.125-.319 0-.875-.711-.875-1.117 0-.225-.103-.449-.229-.497-.343-.132-.325-3.314.02-3.66a.955.955 0 0 0 .25-.585c0-.41.993-1.322 1.719-1.579.292-.104.513-.273.49-.375-.025-.11.197-.187.541-.187.408 0 .584-.075.584-.25 0-.202.266-.25 1.399-.25 1.089 0 1.42.055 1.494.25m83.648.042c-.03.15.281.208 1.125.208.926 0 1.167.052 1.167.25 0 .137.113.25.25.25s.25.063.25.141c0 .232.745 1.026.964 1.026.115 0 .203.219.203.505 0 .295.104.545.25.601.137.053.25.238.25.411 0 .303-.207.316-5.084.316-4.972 0-5.083-.007-5.083-.333 0-.186.111-.334.25-.334.258 0 .309-.144.281-.797-.009-.209.044-.343.117-.297.074.045.364-.177.646-.495.281-.317.624-.577.761-.577.433 0 .778-.193.778-.435 0-.147.184-.232.5-.232.341 0 .5-.082.5-.258 0-.209.183-.249.959-.209.657.035.945.116.916.259m-239.041 7.607c0 .793-.064 1.09-.25 1.161a.41.41 0 0 0-.25.351c0 .141-.084.256-.185.256-.209 0-.975.684-.979.875-.017.742-3.793 1.245-4.063.541-.053-.137-.293-.25-.533-.25-.689 0-1.062-.592-1.068-1.694-.006-1.037.115-1.52.345-1.378.082.051.149-.025.149-.168 0-.143.113-.26.25-.26a.25.25 0 0 0 .25-.25c0-.213.463-.25 3.167-.25h3.167v1.066" fill="#848484"/><path d="M0 56.917v56.916h113.833V58.5H55.167V0H0v56.917m377.167-53.5c0 .21-.361.25-2.25.25s-2.25.04-2.25.25c0 .189-.206.25-.849.25-.709 0-.864.055-.936.333-.073.276-.228.333-.901.333-.613 0-.814.062-.814.25 0 .166-.166.25-.489.25-.342 0-.521.1-.595.334-.074.233-.252.333-.594.333-.324 0-.489.085-.489.25 0 .175-.176.25-.583.25-.408 0-.584.075-.584.25a.25.25 0 0 1-.25.25c-.139 0-.25.148-.25.333 0 .27-.111.334-.583.334-.386 0-.583.078-.583.23 0 .127-.15.27-.334.318-.183.048-.333.207-.333.353s-.113.265-.25.265a.251.251 0 0 0-.25.25.25.25 0 0 1-.25.25.251.251 0 0 0-.25.25c0 .139-.148.25-.333.25-.223 0-.334.111-.334.334 0 .185-.111.333-.25.333a.25.25 0 0 0-.25.25c0 .137-.119.25-.265.25-.146 0-.305.15-.353.333-.048.184-.191.334-.318.334s-.23.112-.23.25c0 .137-.113.25-.25.25a.25.25 0 0 0-.25.25c0 .139-.148.25-.334.25-.27 0-.333.111-.333.583 0 .407-.075.583-.25.583a.251.251 0 0 0-.25.25c0 .138-.104.25-.232.25-.255 0-.435.351-.435.847 0 .176-.112.32-.25.32-.174 0-.25.176-.25.583 0 .408-.075.584-.25.584-.174 0-.25.176-.25.583 0 .472-.063.583-.333.583-.299 0-.333.111-.333 1.084 0 .852-.054 1.083-.25 1.083-.175 0-.25.176-.25.583 0 .408-.076.584-.25.584-.206 0-.25.294-.25 1.647 0 1.507-.029 1.655-.334 1.734-.319.084-.333.228-.333 3.436 0 3.238.011 3.349.333 3.349.311 0 .334.111.334 1.667 0 1.37.044 1.667.25 1.667.174 0 .25.176.25.583s.075.583.25.583c.197 0 .25.234.25 1.099 0 .959.042 1.11.333 1.186.237.062.333.228.333.573 0 .278.107.527.25.582.143.055.25.303.25.578 0 .318.086.482.25.482.138 0 .25.144.25.32 0 .497.18.847.435.847.128 0 .232.115.232.255a.41.41 0 0 0 .25.351c.143.055.25.304.25.578 0 .372.077.483.333.483.223 0 .334.111.334.333 0 .185.111.333.25.333.137 0 .25.113.25.25 0 .138.104.25.232.25s.275.113.328.25a.41.41 0 0 0 .351.25c.144 0 .255.145.255.334 0 .185.111.333.25.333a.25.25 0 0 1 .25.25c0 .139.148.25.334.25.222 0 .333.111.333.333 0 .186.111.334.25.334a.25.25 0 0 1 .25.25c0 .137.113.25.25.25a.25.25 0 0 1 .25.25c0 .139.148.25.333.25.223 0 .334.111.334.333 0 .27.111.333.583.333.407 0 .583.076.583.25 0 .138.104.25.231.25s.27.15.318.334c.063.242.227.333.602.333.348 0 .516.082.516.25 0 .175.176.25.583.25.408 0 .584.075.584.25 0 .164.164.25.48.25.341 0 .506.097.568.333.063.243.227.334.603.334.347 0 .515.081.515.25 0 .202.267.25 1.398.25 1.257 0 1.406.033 1.484.333.063.243.227.333.603.333.347 0 .515.082.515.25 0 .218.797.25 6.167.25s6.167-.032 6.167-.25c0-.201.261-.25 1.349-.25 1.208 0 1.358-.034 1.436-.333.076-.293.227-.333 1.234-.333.909 0 1.147-.052 1.147-.25 0-.169.169-.25.516-.25.375 0 .539-.091.603-.334.061-.236.227-.333.567-.333.316 0 .481-.086.481-.25 0-.187.2-.251.792-.253.786-.003 1.541-.482 1.541-.979 0-.101.263-.185.584-.185.407 0 .583-.075.583-.25 0-.168.168-.25.516-.25.375 0 .539-.09.602-.333.048-.183.191-.333.318-.333s.231-.113.231-.25a.25.25 0 0 1 .25-.25c.219 0 .25-1.241.25-10.167V26.833h-9v7.334c0 6.407-.032 7.333-.25 7.333-.139 0-.25.148-.25.333 0 .27-.111.334-.584.334-.407 0-.583.075-.583.25 0 .174-.176.25-.583.25-.408 0-.584.075-.584.25 0 .205-.296.25-1.666.25-1.556 0-1.667.022-1.667.333 0 .322-.111.333-3.417.333-3.305 0-3.416-.011-3.416-.333 0-.299-.111-.333-1.066-.333-.793 0-1.09-.064-1.161-.25-.056-.146-.306-.25-.601-.25-.338 0-.506-.083-.506-.25 0-.175-.176-.25-.583-.25-.472 0-.583-.064-.583-.334s-.111-.333-.584-.333c-.407 0-.583-.075-.583-.25 0-.138-.104-.25-.231-.25-.126 0-.269-.15-.317-.333-.064-.243-.228-.334-.603-.334-.347 0-.516-.081-.516-.25a.25.25 0 0 0-.25-.25.25.25 0 0 1-.25-.25c0-.139-.148-.25-.333-.25-.222 0-.333-.111-.333-.333 0-.185-.111-.333-.25-.333a.25.25 0 0 1-.25-.25c0-.139-.148-.25-.334-.25-.27 0-.333-.111-.333-.584 0-.407-.075-.583-.25-.583a.251.251 0 0 1-.25-.25.25.25 0 0 0-.25-.25c-.175 0-.25-.176-.25-.583 0-.473-.063-.584-.333-.584s-.334-.111-.334-.583c0-.407-.075-.583-.25-.583-.196 0-.25-.232-.25-1.084 0-.852-.053-1.083-.25-1.083-.189 0-.25-.205-.25-.849 0-.709-.055-.863-.333-.936-.317-.083-.333-.227-.333-2.882 0-2.654.016-2.798.333-2.881.221-.058.333-.228.333-.502 0-.228.113-.458.25-.51.177-.068.25-.343.25-.935 0-.634.061-.838.25-.838.165 0 .25-.165.25-.481 0-.34.098-.506.334-.568.242-.063.333-.227.333-.602 0-.348.082-.516.25-.516.137 0 .25-.104.25-.232s.113-.276.25-.328c.146-.056.25-.306.25-.601 0-.352.081-.506.266-.506.146 0 .304-.15.352-.333.048-.183.191-.333.318-.333s.231-.113.231-.25c0-.138.093-.252.208-.253.254-.004.958-.723.958-.979 0-.102.263-.185.584-.185.407 0 .583-.075.583-.25a.25.25 0 0 1 .25-.25c.139 0 .25-.148.25-.333 0-.27.111-.334.583-.334.408 0 .584-.075.584-.25 0-.167.167-.25.505-.25.295 0 .545-.104.601-.25.066-.17.333-.25.844-.25.607 0 .764-.062.835-.333.072-.276.227-.333.901-.333.612 0 .814-.062.814-.25 0-.216.555-.25 4-.25 3.444 0 4 .034 4 .25 0 .164.164.25.48.25.341 0 .506.097.568.333.073.278.227.333.936.333.644 0 .849.061.849.25 0 .167.167.25.5.25.333 0 .5.084.5.25 0 .175.176.25.583.25.473 0 .584.064.584.334 0 .188.111.333.255.333.14 0 .298.113.351.25.053.137.192.25.309.25.117 0 .252.15.3.333.063.243.227.334.602.334.348 0 .516.081.516.25 0 .137.113.25.25.25a.25.25 0 0 1 .25.25c0 .189.204.25.833.25.63 0 .834-.061.834-.25 0-.175.176-.25.583-.25.387 0 .583-.078.583-.233 0-.127.113-.275.25-.328a.408.408 0 0 0 .25-.351c0-.144.145-.255.334-.255.185 0 .333-.111.333-.25a.25.25 0 0 1 .25-.25c.139 0 .25-.148.25-.333 0-.189.111-.334.255-.334a.408.408 0 0 0 .351-.25c.053-.137.201-.25.328-.25a.233.233 0 0 0 .233-.232c0-.128.112-.275.25-.328a.412.412 0 0 0 .25-.351c0-.14.075-.255.166-.255.098 0 .167-.584.167-1.417 0-.833-.069-1.417-.167-1.417-.091 0-.166-.112-.166-.25 0-.166-.167-.25-.5-.25-.334 0-.5-.083-.5-.25 0-.139-.148-.25-.334-.25-.222 0-.333-.111-.333-.333 0-.185-.111-.333-.25-.333a.251.251 0 0 1-.25-.25c0-.139-.148-.25-.333-.25-.223 0-.334-.111-.334-.334 0-.256-.111-.333-.482-.333-.275 0-.523-.107-.578-.25-.056-.146-.306-.25-.601-.25-.338 0-.505-.083-.505-.25 0-.175-.176-.25-.584-.25-.472 0-.583-.063-.583-.333 0-.186-.111-.334-.25-.334a.25.25 0 0 1-.25-.25c0-.191-.211-.25-.897-.25-.757 0-.911-.052-.985-.333-.071-.272-.227-.333-.852-.333-.57 0-.766-.064-.766-.25 0-.206-.296-.25-1.667-.25-1.37 0-1.666-.045-1.666-.25 0-.216-.611-.25-4.5-.25-3.889 0-4.5.034-4.5.25m-256.5 4.499v4.251h15.832l.042 20.041.042 20.042 4.667.047c2.567.025 4.835.005 5.042-.045l.375-.092V12.167h15.66l.092-.375c.05-.207.071-2.1.045-4.209l-.047-3.833-20.875-.042-20.875-.043v4.251m52.541 20.042l.042 24.292h10l.042-24.292.042-24.291h-10.168l.042 24.291m27.166 0l.043 24.292h9.333l.043-14.442c.042-14.337.045-14.442.375-14.356.235.061.332.227.332.567 0 .316.086.481.25.481.137 0 .25.141.25.314 0 .174.149.353.333.401.243.063.334.227.334.603 0 .347.081.515.25.515.166 0 .25.167.25.5 0 .315.085.5.23.5.127 0 .27.15.318.334.048.183.207.333.353.333.184 0 .265.154.265.505 0 .296.104.545.25.601.143.055.25.304.25.578 0 .308.087.483.239.483.131 0 .286.15.345.333.058.183.213.333.344.333.154 0 .239.177.239.5 0 .334.083.5.25.5.139 0 .25.148.25.334 0 .222.111.333.333.333.27 0 .334.111.334.583 0 .408.075.584.25.584.166 0 .25.166.25.5 0 .333.083.5.25.5.137 0 .25.119.25.265 0 .146.15.305.333.353.237.062.333.227.333.573 0 .278.107.527.25.582.143.054.25.303.25.578 0 .371.077.482.334.482.222 0 .333.111.333.333 0 .186.111.334.25.334.167 0 .25.167.25.505 0 .295.104.545.25.601.143.055.25.303.25.578 0 .371.077.482.333.482.223 0 .334.111.334.334 0 .185.111.333.25.333.168 0 .25.168.25.516 0 .375.09.539.333.602.236.062.333.228.333.568 0 .316.086.481.25.481.139 0 .25.148.25.333 0 .185.111.333.25.333.167 0 .25.167.25.5 0 .389.074.5.334.5.27 0 .333.111.333.584 0 .385.078.583.231.583.126 0 .269.15.317.333.136.518 5.435.518 5.57 0 .048-.183.191-.333.318-.333a.232.232 0 0 0 .231-.231c0-.126.15-.269.333-.317.243-.064.333-.228.333-.603 0-.347.082-.516.25-.516.175 0 .25-.176.25-.583 0-.413.075-.583.256-.583.14 0 .298-.113.351-.25.052-.138.2-.25.328-.25.154 0 .232-.196.232-.584 0-.407.075-.583.25-.583s.25-.176.25-.583c0-.473.063-.584.333-.584.186 0 .334-.111.334-.25a.25.25 0 0 1 .25-.25c.174 0 .25-.176.25-.583s.075-.583.25-.583c.174 0 .25-.176.25-.584 0-.472.063-.583.333-.583.185 0 .333-.111.333-.25a.25.25 0 0 1 .25-.25c.173 0 .25-.174.25-.564 0-.424.083-.585.334-.651.242-.063.333-.227.333-.603 0-.347.082-.515.25-.515.137 0 .25-.113.25-.25a.25.25 0 0 1 .25-.25c.175 0 .25-.176.25-.584 0-.472.063-.583.333-.583s.334-.111.334-.583c0-.408.075-.584.25-.584.137 0 .25-.103.25-.23s.15-.27.333-.318c.243-.063.333-.227.333-.603 0-.347.082-.515.25-.515.165 0 .25-.165.25-.483 0-.274.108-.523.25-.578a.408.408 0 0 0 .25-.351c0-.144.145-.255.334-.255.27 0 .333-.111.333-.583 0-.408.075-.584.25-.584.154 0 .25-.156.25-.409 0-.398.689-1.257 1.008-1.257.087 0 .159-.263.159-.584 0-.407.075-.583.25-.583.164 0 .25-.165.25-.481 0-.34.097-.506.332-.567.33-.086.333.019.375 14.356l.043 14.442h9.333l.042-24.292.042-24.291h-4.167c-3.437 0-4.167.04-4.167.23 0 .127-.15.27-.333.318-.243.063-.334.227-.334.603 0 .347-.081.515-.25.515-.139 0-.25.148-.25.334 0 .222-.111.333-.333.333-.259 0-.333.111-.333.5 0 .333-.084.5-.25.5-.175 0-.25.176-.25.583 0 .408-.076.584-.25.584-.175 0-.25.176-.25.583 0 .472-.064.583-.334.583-.185 0-.333.111-.333.25a.25.25 0 0 1-.25.25c-.173 0-.25.174-.25.564 0 .424-.083.586-.333.651-.243.064-.334.228-.334.603 0 .347-.081.516-.25.516a.25.25 0 0 0-.25.25.25.25 0 0 1-.25.25c-.174 0-.25.176-.25.583 0 .472-.063.583-.333.583s-.333.111-.333.584c0 .407-.076.583-.25.583-.138 0-.25.104-.25.231 0 .126-.15.269-.334.317-.242.064-.333.228-.333.603 0 .347-.082.516-.25.516-.175 0-.25.176-.25.583s-.075.583-.25.583a.25.25 0 0 0-.25.25c0 .139-.148.25-.333.25-.27 0-.334.111-.334.584 0 .407-.075.583-.25.583-.174 0-.25.176-.25.583 0 .388-.078.584-.232.584-.255 0-.434.35-.434.847 0 .175-.113.319-.25.319a.25.25 0 0 0-.25.25.25.25 0 0 1-.25.25c-.175 0-.25.176-.25.584 0 .472-.064.583-.334.583-.256 0-.333.111-.333.482 0 .275-.107.524-.25.578a.41.41 0 0 0-.25.351.254.254 0 0 1-.25.256c-.175 0-.25.176-.25.583 0 .472-.063.583-.333.583-.26 0-.334.111-.334.5 0 .334-.083.5-.25.5-.139 0-.25.148-.25.334 0 .222-.111.333-.333.333-.27 0-.333.111-.333.583 0 .408-.076.584-.25.584-.167 0-.25.166-.25.5 0 .333-.084.5-.25.5-.175 0-.25.176-.25.583 0 .472-.064.583-.334.583-.222 0-.333.111-.333.334 0 .185-.111.333-.25.333-.164 0-.25.165-.25.481 0 .34-.097.506-.333.567-.243.064-.334.228-.334.603 0 .347-.081.516-.25.516-.174 0-.25-.176-.25-.584 0-.387-.078-.583-.232-.583-.128 0-.275-.113-.328-.25a.41.41 0 0 0-.351-.25c-.181 0-.255-.171-.255-.583 0-.408-.076-.584-.25-.584-.169 0-.25-.168-.25-.515 0-.376-.091-.54-.334-.603-.183-.048-.333-.191-.333-.318s-.113-.23-.25-.23c-.175 0-.25-.176-.25-.584 0-.407-.075-.583-.25-.583-.168 0-.25-.168-.25-.516 0-.375-.091-.539-.333-.602-.236-.062-.334-.228-.334-.568 0-.316-.085-.481-.25-.481-.139 0-.25-.148-.25-.333 0-.185-.111-.333-.25-.333-.165 0-.25-.166-.25-.489 0-.342-.099-.521-.333-.595-.183-.058-.333-.213-.333-.344a.245.245 0 0 0-.25-.239c-.169 0-.25-.168-.25-.516 0-.375-.091-.539-.334-.602-.236-.062-.333-.228-.333-.568 0-.316-.086-.481-.25-.481-.175 0-.25-.176-.25-.583 0-.386-.078-.583-.231-.583-.126 0-.269-.15-.317-.334-.048-.183-.207-.333-.353-.333-.184 0-.266-.154-.266-.5 0-.333-.083-.5-.25-.5-.174 0-.25-.176-.25-.583 0-.473-.063-.584-.333-.584-.222 0-.333-.111-.333-.333 0-.185-.111-.333-.25-.333-.167 0-.25-.167-.25-.5 0-.315-.086-.5-.231-.5-.127 0-.27-.15-.318-.334-.048-.183-.206-.333-.352-.333-.185 0-.266-.154-.266-.505 0-.296-.104-.545-.25-.601-.143-.055-.25-.304-.25-.578 0-.372-.077-.483-.333-.483-.27 0-.334-.111-.334-.583 0-.407-.075-.583-.25-.583a.251.251 0 0 1-.25-.25.25.25 0 0 0-.25-.25c-.174 0-.25-.176-.25-.584 0-.472-.063-.583-.333-.583s-.333-.111-.333-.583c0-.408-.076-.584-.25-.584a.25.25 0 0 1-.25-.25c0-.139-.148-.25-.334-.25-.27 0-.333-.111-.333-.583 0-.407-.075-.583-.25-.583s-.25-.176-.25-.584c0-.407-.075-.583-.25-.583a.25.25 0 0 1-.25-.25c0-.139-.148-.25-.333-.25-.27 0-.334-.111-.334-.583 0-.408-.075-.584-.25-.584-.174 0-.25-.176-.25-.583v-.583H200.332l.042 24.291m70 0l.043 24.292h10l.042-24.292.042-24.291h-10.169l.042 24.291m27.167 0l.042 24.292 4.667.047c2.567.025 4.835.005 5.042-.045l.375-.092V37.247c0-13.146.029-14.914.25-14.914.137 0 .25.113.25.25 0 .139.148.25.333.25.222 0 .333.111.333.334 0 .185.111.333.25.333a.25.25 0 0 1 .25.25c0 .137.113.25.25.25.169 0 .25.168.25.516 0 .375.091.539.334.602.183.048.333.191.333.318s.104.231.231.231c.126 0 .269.15.317.333.048.183.207.333.353.333s.266.113.266.25c0 .138.112.25.25.25.174 0 .25.176.25.584 0 .407.075.583.25.583.137 0 .25.113.25.25 0 .139.148.25.333.25.188 0 .333.111.333.255a.41.41 0 0 0 .25.351c.138.053.25.201.25.328 0 .128.105.233.233.233.127 0 .275.112.328.25a.41.41 0 0 0 .351.25c.18 0 .255.17.255.583 0 .407.075.583.25.583.137 0 .25.113.25.25 0 .139.148.25.333.25.223 0 .334.111.334.334 0 .185.111.333.25.333a.25.25 0 0 1 .25.25c0 .137.112.25.25.25.168 0 .25.168.25.516 0 .375.09.539.333.602.183.048.333.191.333.318s.113.231.25.231c.139 0 .25.148.25.333 0 .222.111.333.334.333.185 0 .333.111.333.25 0 .138.112.25.25.25.137 0 .25.115.25.256 0 .14.112.298.25.351.143.054.25.303.25.578 0 .371.077.482.333.482.223 0 .334.111.334.333 0 .186.111.334.25.334a.25.25 0 0 1 .25.25c0 .139.148.25.333.25.188 0 .333.111.333.255 0 .14.113.298.25.351.143.055.25.303.25.578 0 .318.086.482.25.482.138 0 .25.12.25.266 0 .146.15.305.334.353.183.048.333.191.333.317 0 .127.112.231.25.231.137 0 .25.115.25.255 0 .141.104.295.231.344.128.049.276.309.329.578.057.285.205.49.352.49.144 0 .255.145.255.333 0 .185.111.333.25.333.137 0 .25.113.25.25 0 .139.148.25.333.25.185 0 .333.111.333.25 0 .138.113.25.25.25.139 0 .25.148.25.334 0 .185.111.333.25.333.169 0 .25.168.25.516 0 .375.091.539.334.602.183.048.333.191.333.318s.112.231.25.231a.25.25 0 0 1 .25.25c0 .139.148.25.333.25.223 0 .334.111.334.333 0 .185.111.333.25.333.158 0 .25.16.25.435 0 .455.599 1.224.958 1.229.115.002.208.115.208.253 0 .137.104.25.231.25s.27.15.318.333c.048.184.206.334.352.334s.266.112.266.25c0 .137.104.25.231.25.126 0 .269.15.317.333.088.334 7.383.541 8.188.232.239-.091.264-2.39.264-24.333V3.667h-10.167v15c0 14.889-.002 15-.333 15-.222 0-.333-.111-.333-.334 0-.185-.111-.333-.25-.333a.25.25 0 0 1-.25-.25.25.25 0 0 0-.25-.25c-.169 0-.25-.168-.25-.516 0-.375-.091-.539-.334-.602-.183-.048-.333-.191-.333-.318a.232.232 0 0 0-.231-.231c-.126 0-.269-.15-.317-.333-.048-.183-.207-.333-.353-.333s-.266-.113-.266-.25a.25.25 0 0 0-.25-.25c-.174 0-.25-.176-.25-.584 0-.407-.075-.583-.25-.583a.251.251 0 0 1-.25-.25c0-.139-.148-.25-.333-.25-.188 0-.333-.111-.333-.255a.41.41 0 0 0-.25-.351c-.138-.053-.25-.201-.25-.328 0-.128-.15-.233-.334-.233-.185 0-.333-.111-.333-.25a.251.251 0 0 0-.25-.25c-.175 0-.25-.176-.25-.583s-.075-.583-.25-.583a.245.245 0 0 1-.25-.239c0-.131-.15-.286-.333-.345-.184-.058-.334-.213-.334-.344a.245.245 0 0 0-.25-.239.251.251 0 0 1-.25-.25.25.25 0 0 0-.25-.25c-.168 0-.25-.168-.25-.516 0-.375-.09-.539-.333-.602-.183-.048-.333-.191-.333-.318s-.113-.231-.25-.231c-.138 0-.25-.119-.25-.265 0-.146-.15-.305-.334-.353-.183-.048-.333-.191-.333-.318s-.113-.23-.25-.23a.253.253 0 0 1-.25-.256.412.412 0 0 0-.25-.351c-.138-.052-.25-.282-.25-.51 0-.274-.113-.444-.333-.502-.185-.048-.334-.227-.334-.401 0-.172-.112-.314-.25-.314a.25.25 0 0 1-.25-.25c0-.139-.148-.25-.333-.25-.222 0-.333-.111-.333-.333 0-.185-.111-.333-.25-.333-.167 0-.25-.167-.25-.5 0-.315-.086-.5-.231-.5-.127 0-.27-.15-.318-.334-.048-.183-.206-.333-.352-.333s-.266-.113-.266-.25a.25.25 0 0 0-.25-.25.245.245 0 0 1-.25-.239c0-.131-.15-.286-.333-.344-.234-.074-.334-.253-.334-.595 0-.323-.084-.489-.25-.489-.139 0-.25-.148-.25-.333 0-.185-.111-.333-.25-.333a.251.251 0 0 1-.25-.25c0-.139-.148-.25-.333-.25-.185 0-.333-.111-.333-.25a.25.25 0 0 0-.25-.25c-.139 0-.25-.148-.25-.334 0-.222-.111-.333-.334-.333-.27 0-.333-.111-.333-.583 0-.408-.075-.584-.25-.584a.25.25 0 0 1-.25-.25.251.251 0 0 0-.25-.25.25.25 0 0 1-.25-.25c0-.139-.148-.25-.333-.25-.223 0-.334-.111-.334-.333 0-.185-.111-.333-.25-.333-.161 0-.251-.164-.253-.459-.002-.454-.613-1.208-.978-1.208-.102 0-.185-.112-.185-.25s-.104-.25-.231-.25-.27-.15-.318-.333c-.048-.184-.206-.334-.352-.334s-.266-.112-.266-.25a.251.251 0 0 0-.25-.25c-.175 0-.25-.176-.25-.583v-.583H297.499l.042 24.291" fill="#141414"/><path d="M39.212 131.333c0 .413.033.582.072.375.04-.206.04-.543 0-.75-.039-.206-.072-.037-.072.375m164.33-.551c.16.041.423.041.583 0 .16-.042.029-.077-.292-.077s-.452.035-.291.077m150.625 10.1c.137.119.353.326.478.459.196.207.203.191.047-.113-.101-.196-.316-.402-.479-.459-.258-.09-.264-.075-.046.113" fill="#446448"/></g></svg>